<svg width="20" height="20" viewBox="0 0 20 20" fill="none" xmlns="http://www.w3.org/2000/svg">
<path d="M4.21865 8.87781H2.68457V11.1789H4.21865V8.87781Z" fill="#BDBDBD"/>
<path d="M15.341 3.125H1.53408C0.686504 3.125 0 3.81154 0 4.65911V15.3978C0 16.2453 0.686504 16.9318 1.53408 16.9318H15.3409C16.1885 16.9318 16.875 16.2453 16.875 15.3978V4.65911C16.875 3.81154 16.1885 3.125 15.341 3.125ZM5.36933 11.179C5.36933 11.831 4.87075 12.3296 4.21876 12.3296H1.53408V7.7273H4.21876C4.87075 7.7273 5.36933 8.22587 5.36933 8.87787V11.179ZM8.91308 12.3296H7.76252L6.42019 7.7273H7.57076L8.33782 10.3583L9.10487 7.7273H10.2554L8.91308 12.3296ZM15.341 9.64492C15.341 10.1052 15.0341 10.527 14.6506 10.7188L15.341 12.3296H14.1904L13.5384 10.7955H12.6563V12.3296H11.5057V7.7273H14.1904C14.8424 7.7273 15.341 8.22587 15.341 8.87787V9.64492Z" fill="#BDBDBD"/>
<path d="M14.1903 8.87781H12.6562V9.64486H14.1903V8.87781Z" fill="#BDBDBD"/>
</svg>
