<svg width="20" height="20" viewBox="0 0 20 20" fill="none" xmlns="http://www.w3.org/2000/svg">
<path d="M1.61533 4.8149C4.01714 6.84897 8.23156 10.4275 9.47023 11.5433C9.63652 11.6939 9.81487 11.7705 10 11.7705C10.1848 11.7705 10.3628 11.6946 10.5287 11.5447C11.7685 10.4279 15.9829 6.84897 18.3847 4.8149C18.5343 4.68851 18.5571 4.46634 18.436 4.31181C18.1561 3.95474 17.7389 3.75 17.2917 3.75H2.70837C2.26119 3.75 1.84389 3.95474 1.56406 4.31185C1.443 4.46634 1.4658 4.68851 1.61533 4.8149Z" fill="url(#paint0_linear)"/>
<path d="M18.5385 5.9172C18.4093 5.85704 18.2573 5.87803 18.1497 5.9699C15.4862 8.22788 12.0867 11.1221 11.0172 12.0859C10.4169 12.6278 9.58376 12.6278 8.98206 12.0852C7.84203 11.058 4.02457 7.81273 1.85026 5.96987C1.74202 5.878 1.58964 5.85773 1.46147 5.91716C1.33261 5.97701 1.25 6.1059 1.25 6.24796V15.4166C1.25 16.221 1.90403 16.875 2.70834 16.875H17.2917C18.096 16.875 18.75 16.221 18.75 15.4166V6.24796C18.75 6.1059 18.6674 5.97667 18.5385 5.9172Z" fill="url(#paint1_linear)"/>
<defs>
<linearGradient id="paint0_linear" x1="1.48633" y1="3.75" x2="1.48633" y2="11.7705" gradientUnits="userSpaceOnUse">
<stop stop-color="#6065EA"/>
<stop offset="1" stop-color="#3A3EA6"/>
</linearGradient>
<linearGradient id="paint1_linear" x1="1.25" y1="5.88321" x2="1.25" y2="16.875" gradientUnits="userSpaceOnUse">
<stop stop-color="#6065EA"/>
<stop offset="1" stop-color="#3A3EA6"/>
</linearGradient>
</defs>
</svg>
