<svg width="20" height="20" viewBox="0 0 20 20" fill="none" xmlns="http://www.w3.org/2000/svg">
<path d="M15.7456 8.20296C15.5744 5.5465 13.3593 3.4375 10.6609 3.4375C10.1722 3.4375 9.68757 3.50702 9.22022 3.64407C7.99913 4.00255 6.95443 4.81337 6.29926 5.89726C5.91989 5.70829 5.50246 5.60987 5.07159 5.60987C3.67942 5.60987 2.52213 6.63655 2.33502 7.98967C1.67642 8.29723 1.11566 8.77417 0.703239 9.37999C0.243187 10.0556 0 10.8441 0 11.6602C0 13.8645 1.72534 15.6433 3.92804 15.7101L15.0518 15.7106L15.0912 15.71C17.1428 15.6366 18.75 13.9702 18.75 11.9163C18.75 10.1108 17.4801 8.57003 15.7456 8.20296ZM10.6619 14.1864C10.6619 14.1864 10.6617 14.1864 10.6616 14.1864C10.3583 14.1864 10.1124 13.9407 10.1123 13.6373C10.1121 13.3502 9.77268 13.1075 9.37085 13.1073C9.37071 13.1073 9.37057 13.1073 9.37042 13.1073C9.15771 13.1073 8.954 13.1757 8.81138 13.295C8.74386 13.3514 8.6307 13.4705 8.63085 13.6358C8.63099 13.939 8.38509 14.1851 8.08167 14.1852H8.08153C7.77826 14.1852 7.53236 13.9395 7.53222 13.6362C7.53207 13.189 7.74136 12.7573 8.10671 12.452C8.44874 12.1661 8.8975 12.0087 9.37028 12.0087H9.37128C10.3852 12.0091 11.2105 12.7395 11.2109 13.6368C11.2111 13.9402 10.9653 14.1862 10.6619 14.1864ZM12.5866 12.2854C12.5251 12.3075 12.4622 12.318 12.4004 12.318C12.1754 12.318 11.9642 12.1788 11.8835 11.9549C11.6188 11.2202 10.5615 10.6865 9.36971 10.6859C9.36913 10.6859 9.36856 10.6859 9.36799 10.6859C8.19926 10.6859 7.14812 11.2069 6.86803 11.925C6.75774 12.2077 6.4393 12.3474 6.15664 12.2371C5.87397 12.1269 5.73421 11.8084 5.8445 11.5258C6.29683 10.366 7.7126 9.58727 9.36785 9.58727H9.37014C11.0354 9.58798 12.4938 10.4084 12.9171 11.5823C13.0199 11.8676 12.872 12.1825 12.5866 12.2854ZM13.8851 10.4773C13.8205 10.5019 13.7542 10.5137 13.689 10.5137C13.4678 10.5137 13.2594 10.3793 13.1757 10.1605C12.768 9.09474 11.1656 8.32069 9.36542 8.31984C9.36456 8.31984 9.36356 8.31984 9.3627 8.31984C7.59802 8.31984 6.00486 9.075 5.5737 10.1161C5.45769 10.3965 5.13639 10.5295 4.85601 10.4135C4.57578 10.2975 4.4426 9.97622 4.55861 9.69584C4.86259 8.96199 5.49502 8.336 6.38795 7.88582C7.25026 7.45109 8.27894 7.2212 9.36255 7.2212H9.36599C10.4676 7.22178 11.5103 7.45895 12.3812 7.90728C13.2716 8.36547 13.9182 9.02637 14.2018 9.76794C14.3103 10.0513 14.1685 10.3689 13.8851 10.4773Z" fill="#BDBDBD"/>
</svg>
