<svg width="42" height="42" viewBox="0 0 42 42" fill="none" xmlns="http://www.w3.org/2000/svg">
<g filter="url(#filter0_d)">
<path d="M21 40C32.0457 40 41 31.0457 41 20C41 8.9543 32.0457 0 21 0C9.9543 0 1 8.9543 1 20C1 31.0457 9.9543 40 21 40Z" fill="#242424"/>
<path d="M21 38.7591C31.3605 38.7591 39.7593 30.3603 39.7593 19.9999C39.7593 9.63941 31.3605 1.2406 21 1.2406C10.6396 1.2406 2.24072 9.63941 2.24072 19.9999C2.24072 30.3603 10.6396 38.7591 21 38.7591Z" fill="#333333"/>
<path d="M21 36.2813C29.9919 36.2813 37.2813 28.992 37.2813 20C37.2813 11.0081 29.9919 3.71875 21 3.71875C12.0081 3.71875 4.71875 11.0081 4.71875 20C4.71875 28.992 12.0081 36.2813 21 36.2813Z" fill="#2F338E"/>
<path d="M20.9998 35.9681C12.1948 35.9681 5.03174 28.8047 5.03174 20C5.03174 11.1953 12.1948 4.03223 20.9998 4.03223C29.8048 4.03223 36.9679 11.1953 36.9679 20C36.9679 28.8047 29.8048 35.9681 20.9998 35.9681Z" fill="#6066FF"/>
<path d="M20.9998 35.6557C12.3673 35.6557 5.34424 28.6322 5.34424 20C5.34424 11.3679 12.3673 4.34473 20.9998 4.34473C29.6323 4.34473 36.6554 11.3679 36.6554 20C36.6554 28.6322 29.6323 35.6557 20.9998 35.6557Z" fill="#5B61F9"/>
<path d="M20.9998 35.0307C12.712 35.0307 5.96924 28.2882 5.96924 20C5.96924 11.7122 12.7117 4.96973 20.9998 4.96973C29.2879 4.96973 36.0304 11.7122 36.0304 20C36.0304 28.2879 29.2876 35.0307 20.9998 35.0307Z" fill="#3F44D1"/>
<path d="M20.9998 34.7181C12.8839 34.7181 6.28174 28.1153 6.28174 20C6.28174 11.8847 12.8839 5.28223 20.9998 5.28223C29.1157 5.28223 35.7179 11.8847 35.7179 20C35.7179 28.1153 29.1157 34.7181 20.9998 34.7181Z" fill="#666BE9"/>
<path d="M20.9998 33.7806C13.4017 33.7806 7.21924 27.5984 7.21924 20C7.21924 12.4016 13.4008 6.21973 20.9998 6.21973C28.5988 6.21973 34.7804 12.4016 34.7804 20C34.7804 27.5981 28.5979 33.7806 20.9998 33.7806Z" fill="#5156D3"/>
<path d="M21.0002 30.7114C15.0939 30.7114 10.2886 25.9061 10.2886 19.9999C10.2886 14.0934 15.0939 9.28809 21.0002 9.28809C26.9065 9.28809 31.7118 14.0934 31.7118 19.9999C31.7118 25.9061 26.9065 30.7114 21.0002 30.7114Z" fill="#1E2C33"/>
<path d="M21.0001 30.4C26.7439 30.4 31.4001 25.7437 31.4001 20C31.4001 14.2562 26.7439 9.59998 21.0001 9.59998C15.2563 9.59998 10.6001 14.2562 10.6001 20C10.6001 25.7437 15.2563 30.4 21.0001 30.4Z" fill="#263740"/>
<path d="M21.0002 30.0864C15.4383 30.0864 10.9136 25.5617 10.9136 19.9999C10.9136 14.4381 15.4383 9.91309 21.0002 9.91309C26.5621 9.91309 31.0868 14.4381 31.0868 19.9999C31.0868 25.5617 26.5621 30.0864 21.0002 30.0864Z" fill="#2D424D"/>
<path d="M21.0002 29.4615C15.783 29.4615 11.5386 25.2171 11.5386 20C11.5386 14.7828 15.783 10.5381 21.0002 10.5381C26.2174 10.5381 30.4618 14.7828 30.4618 20C30.4618 25.2171 26.2174 29.4615 21.0002 29.4615Z" fill="#253740"/>
<path d="M21 27.6285C25.2131 27.6285 28.6284 24.2131 28.6284 20C28.6284 15.7869 25.2131 12.3716 21 12.3716C16.7869 12.3716 13.3716 15.7869 13.3716 20C13.3716 24.2131 16.7869 27.6285 21 27.6285Z" fill="#242424"/>
<path d="M21 27.316C16.966 27.316 13.6841 24.0341 13.6841 20C13.6841 15.966 16.966 12.6841 21 12.6841C25.0341 12.6841 28.3159 15.966 28.3159 20C28.3159 24.0341 25.0341 27.316 21 27.316Z" fill="#333333"/>
<path d="M21 27.0035C17.1385 27.0035 13.9966 23.8616 13.9966 20C13.9966 16.1385 17.1385 12.9966 21 12.9966C24.8616 12.9966 28.0034 16.1385 28.0034 20C28.0034 23.8616 24.8616 27.0035 21 27.0035Z" fill="#242424"/>
<path d="M21 26.066C17.6553 26.066 14.9341 23.3447 14.9341 20C14.9341 16.6553 17.6553 13.9341 21 13.9341C24.3447 13.9341 27.0659 16.6553 27.0659 20C27.0659 23.3447 24.3447 26.066 21 26.066Z" fill="#4D4D4D"/>
<path d="M21 25.441C17.9994 25.441 15.5591 22.9997 15.5591 20C15.5591 17 18.0003 14.5591 21 14.5591C23.9997 14.5591 26.4409 17 26.4409 20C26.4409 23 24.0006 25.441 21 25.441Z" fill="#242424"/>
<path d="M21 23.6475C23.0145 23.6475 24.6476 22.0145 24.6476 20C24.6476 17.9856 23.0145 16.3525 21 16.3525C18.9856 16.3525 17.3525 17.9856 17.3525 20C17.3525 22.0145 18.9856 23.6475 21 23.6475Z" fill="#0D0D0D"/>
<path d="M20.9999 22.7485C22.5178 22.7485 23.7483 21.5179 23.7483 20C23.7483 18.4821 22.5178 17.2516 20.9999 17.2516C19.482 17.2516 18.2515 18.4821 18.2515 20C18.2515 21.5179 19.482 22.7485 20.9999 22.7485Z" fill="#FFDE33"/>
<path d="M20.9999 21.2697C21.7011 21.2697 22.2696 20.7013 22.2696 20C22.2696 19.2988 21.7011 18.7303 20.9999 18.7303C20.2987 18.7303 19.7302 19.2988 19.7302 20C19.7302 20.7013 20.2987 21.2697 20.9999 21.2697Z" fill="#FFF8D2"/>
<path d="M19.73 20C19.73 20.7012 20.2987 21.2697 21 21.2697V20H19.73Z" fill="#C1AB30"/>
<path d="M22.27 20C22.27 19.2988 21.7012 18.7303 21 18.7303V20H22.27Z" fill="#C1AB30"/>
</g>
<defs>
<filter id="filter0_d" x="0" y="0" width="42" height="42" filterUnits="userSpaceOnUse" color-interpolation-filters="sRGB">
<feFlood flood-opacity="0" result="BackgroundImageFix"/>
<feColorMatrix in="SourceAlpha" type="matrix" values="0 0 0 0 0 0 0 0 0 0 0 0 0 0 0 0 0 0 127 0"/>
<feOffset dy="1"/>
<feGaussianBlur stdDeviation="0.5"/>
<feColorMatrix type="matrix" values="0 0 0 0 0.0352941 0 0 0 0 0.0196078 0 0 0 0 0.156863 0 0 0 0.25 0"/>
<feBlend mode="normal" in2="BackgroundImageFix" result="effect1_dropShadow"/>
<feBlend mode="normal" in="SourceGraphic" in2="effect1_dropShadow" result="shape"/>
</filter>
</defs>
</svg>
