<svg width="20" height="20" viewBox="0 0 20 20" fill="none" xmlns="http://www.w3.org/2000/svg">
<path d="M10.5469 7.08344C11.9564 7.08344 13.0991 5.94075 13.0991 4.53117C13.0991 3.1216 11.9564 1.97891 10.5469 1.97891C9.1373 1.97891 7.99463 3.1216 7.99463 4.53117C7.99463 5.94075 9.1373 7.08344 10.5469 7.08344Z" fill="#7B83EB"/>
<path opacity="0.1" d="M10.3647 5.07812H8.0531L8.06459 5.12899L8.06568 5.13336L8.07771 5.18039C8.24567 5.81735 8.65319 6.3648 9.21517 6.70843C9.77715 7.05205 10.4501 7.16529 11.0936 7.02449V5.80712C11.093 5.61396 11.0161 5.42887 10.8795 5.29228C10.7429 5.15569 10.5578 5.0787 10.3647 5.07812Z" fill="black"/>
<path opacity="0.2" d="M9.81784 5.625H8.24072C8.44771 6.06141 8.77428 6.43012 9.18249 6.6883C9.5907 6.94647 10.0638 7.08351 10.5468 7.08348V6.35397C10.5462 6.16081 10.4692 5.97573 10.3327 5.83915C10.1961 5.70256 10.011 5.62558 9.81784 5.625Z" fill="black"/>
<path d="M16.289 7.26562C17.3461 7.26562 18.203 6.40867 18.203 5.35156C18.203 4.29445 17.3461 3.4375 16.289 3.4375C15.2319 3.4375 14.375 4.29445 14.375 5.35156C14.375 6.40867 15.2319 7.26562 16.289 7.26562Z" fill="#5059C9"/>
<path d="M17.9297 7.8125H13.6308C13.5379 7.8125 13.4489 7.84937 13.3833 7.91501C13.3176 7.98065 13.2808 8.06967 13.2808 8.1625V12.5977C13.2689 13.2395 13.478 13.866 13.8729 14.3722C14.2678 14.8783 14.8247 15.2334 15.4502 15.378C15.8486 15.4616 16.2606 15.4553 16.6563 15.3595C17.0519 15.2638 17.4212 15.081 17.7373 14.8245C18.0534 14.568 18.3084 14.2443 18.4835 13.8769C18.6587 13.5094 18.7498 13.1075 18.75 12.7005V8.63281C18.75 8.41525 18.6636 8.2066 18.5098 8.05276C18.3559 7.89893 18.1473 7.8125 17.9297 7.8125Z" fill="#5059C9"/>
<path d="M14.9219 8.63272V13.828C14.9224 14.7908 14.6051 15.7268 14.0193 16.4908C13.4334 17.2549 12.6118 17.8042 11.6818 18.0535C10.7519 18.3028 9.76561 18.2382 8.87612 17.8697C7.98664 17.5012 7.24366 16.8494 6.7625 16.0154C6.65727 15.8405 6.56584 15.6577 6.48906 15.4686C6.41748 15.2903 6.35721 15.1076 6.30859 14.9217C6.21844 14.5641 6.17252 14.1968 6.17188 13.828V8.63272C6.17173 8.52496 6.19285 8.41822 6.23403 8.31864C6.2752 8.21905 6.33562 8.12856 6.41182 8.05236C6.48802 7.97616 6.57851 7.91574 6.6781 7.87457C6.77769 7.8334 6.88442 7.81228 6.99219 7.81242H14.1016C14.2093 7.81228 14.3161 7.8334 14.4157 7.87457C14.5152 7.91574 14.6057 7.97616 14.6819 8.05236C14.7581 8.12856 14.8186 8.21905 14.8597 8.31864C14.9009 8.41822 14.922 8.52496 14.9219 8.63272Z" fill="#7B83EB"/>
<path opacity="0.2" d="M9.81784 5.625H8.24072C8.44771 6.06141 8.77428 6.43012 9.18249 6.6883C9.5907 6.94647 10.0638 7.08351 10.5468 7.08348V6.35397C10.5462 6.16081 10.4692 5.97573 10.3327 5.83915C10.1961 5.70256 10.011 5.62558 9.81784 5.625Z" fill="black"/>
<path opacity="0.1" d="M11.0937 7.81242V14.7413C11.0937 14.9062 11.0373 15.0661 10.9338 15.1944C10.8303 15.3228 10.686 15.4118 10.5249 15.4468C10.4735 15.4621 10.42 15.4695 10.3663 15.4687H6.48906C6.41748 15.2903 6.35721 15.1077 6.30859 14.9218C6.21843 14.5642 6.17252 14.1968 6.17188 13.828V8.63273C6.17173 8.52497 6.19285 8.41823 6.23402 8.31864C6.2752 8.21905 6.33561 8.12856 6.41182 8.05236C6.48802 7.97616 6.5785 7.91574 6.67809 7.87457C6.77768 7.8334 6.88441 7.81228 6.99218 7.81242H11.0937Z" fill="black"/>
<path opacity="0.2" d="M10.5468 7.81242V15.2881C10.5476 15.3417 10.5402 15.3952 10.5249 15.4467C10.49 15.6078 10.4009 15.7521 10.2726 15.8555C10.1442 15.959 9.98433 16.0154 9.81948 16.0154H6.76249C6.65726 15.8405 6.56584 15.6577 6.48906 15.4685C6.41748 15.2902 6.35721 15.1076 6.30859 14.9217C6.21843 14.5641 6.17252 14.1967 6.17188 13.8279V8.63272C6.17173 8.52495 6.19285 8.41822 6.23402 8.31863C6.2752 8.21905 6.33561 8.12856 6.41182 8.05236C6.48802 7.97616 6.5785 7.91574 6.67809 7.87457C6.77768 7.8334 6.88441 7.81228 6.99218 7.81242H10.5468Z" fill="black"/>
<path opacity="0.2" d="M10.5468 7.81242V14.1945C10.5459 14.3872 10.469 14.5717 10.3328 14.7079C10.1966 14.8441 10.0121 14.921 9.81948 14.9219H6.30859C6.21843 14.5642 6.17252 14.1969 6.17188 13.8281V8.63274C6.17173 8.52497 6.19285 8.41824 6.23402 8.31865C6.2752 8.21906 6.33561 8.12857 6.41182 8.05237C6.48802 7.97616 6.5785 7.91574 6.67809 7.87457C6.77768 7.8334 6.88441 7.81228 6.99218 7.81242H10.5468Z" fill="black"/>
<path opacity="0.2" d="M6.99219 7.81242C6.88442 7.81228 6.77769 7.8334 6.6781 7.87457C6.57851 7.91574 6.48802 7.97616 6.41182 8.05237C6.33562 8.12857 6.2752 8.21906 6.23403 8.31865C6.19285 8.41824 6.17173 8.52497 6.17188 8.63274V13.8281C6.17252 14.1969 6.21844 14.5642 6.30859 14.9219H9.27266C9.46529 14.921 9.6498 14.8441 9.78601 14.7079C9.92223 14.5717 9.99914 14.3872 10 14.1945V7.81242H6.99219Z" fill="black"/>
<path d="M1.97898 5.625H9.27102C9.46435 5.625 9.64977 5.7018 9.78649 5.83851C9.9232 5.97523 10 6.16065 10 6.35398V13.646C10 13.8394 9.9232 14.0248 9.78649 14.1615C9.64977 14.2982 9.46435 14.375 9.27102 14.375H1.97898C1.78565 14.375 1.60023 14.2982 1.46351 14.1615C1.3268 14.0248 1.25 13.8394 1.25 13.646L1.25 6.35398C1.25 6.16065 1.3268 5.97523 1.46351 5.83851C1.60023 5.7018 1.78565 5.625 1.97898 5.625Z" fill="#4B53BC"/>
<path d="M7.80149 8.34583H6.16633V12.7317H5.09336V8.34583H3.44836V7.2685H7.80149V8.34583Z" fill="white"/>
</svg>
