<svg width="17" height="16" viewBox="0 0 17 16" fill="none" xmlns="http://www.w3.org/2000/svg">
<path fill-rule="evenodd" clip-rule="evenodd" d="M1.5 8C1.5 4.14027 4.63996 1 8.5 1C12.36 1 15.5 4.14027 15.5 8C15.5 11.8597 12.36 15 8.5 15C4.63996 15 1.5 11.8597 1.5 8ZM7.19948 10.8703L11.2828 8.24525C11.366 8.19169 11.4167 8.09913 11.4167 8.00001C11.4167 7.90088 11.366 7.8083 11.2828 7.75476L7.19948 5.12976C7.11003 5.07135 6.9944 5.06824 6.90211 5.11893C6.80811 5.1702 6.75 5.2682 6.75 5.37501V10.625C6.75 10.7318 6.80811 10.8298 6.90211 10.8811C6.9454 10.9047 6.99382 10.9167 7.04168 10.9167C7.09636 10.9167 7.15163 10.9013 7.19948 10.8703Z" fill="#222222"/>
</svg>
