<svg width="20" height="20" viewBox="0 0 20 20" fill="none" xmlns="http://www.w3.org/2000/svg">
<path fill-rule="evenodd" clip-rule="evenodd" d="M7.65334 1.2475C6.68792 1.24821 5.90659 2.03012 5.9073 2.99362C5.90659 3.95712 6.68863 4.73903 7.65406 4.73974H9.40081V2.99434C9.40153 2.03084 8.61948 1.24893 7.65334 1.2475C7.65406 1.2475 7.65406 1.2475 7.65334 1.2475V1.2475ZM7.65334 5.90478H2.99676C2.03133 5.90549 1.24929 6.6874 1.25 7.6509C1.24857 8.6144 2.03062 9.39631 2.99604 9.39773H7.65334C8.61877 9.39702 9.40081 8.61511 9.4001 7.65161C9.40081 6.6874 8.61877 5.90549 7.65334 5.90478Z" fill="#36C5F0"/>
<path fill-rule="evenodd" clip-rule="evenodd" d="M18.7152 7.6509C18.7159 6.6874 17.9339 5.90549 16.9684 5.90478C16.003 5.90549 15.2209 6.6874 15.2216 7.6509V9.39773H16.9684C17.9339 9.39702 18.7159 8.61511 18.7152 7.6509ZM14.0578 7.6509V2.99362C14.0585 2.03084 13.2772 1.24893 12.3117 1.2475C11.3463 1.24821 10.5642 2.03012 10.5649 2.99362V7.6509C10.5635 8.6144 11.3456 9.39631 12.311 9.39773C13.2765 9.39702 14.0585 8.61511 14.0578 7.6509Z" fill="#2EB67D"/>
<path fill-rule="evenodd" clip-rule="evenodd" d="M12.3107 18.7125C13.2762 18.7118 14.0582 17.9299 14.0575 16.9664C14.0582 16.0029 13.2762 15.221 12.3107 15.2202H10.564V16.9664C10.5633 17.9292 11.3453 18.7111 12.3107 18.7125ZM12.3107 14.0545H16.968C17.9335 14.0538 18.7155 13.2719 18.7148 12.3083C18.7162 11.3448 17.9342 10.5629 16.9688 10.5615H12.3114C11.346 10.5622 10.564 11.3441 10.5647 12.3076C10.564 13.2719 11.3453 14.0538 12.3107 14.0545Z" fill="#ECB22E"/>
<path fill-rule="evenodd" clip-rule="evenodd" d="M1.25037 12.3081C1.24965 13.2716 2.03171 14.0535 2.99714 14.0542C3.96258 14.0535 4.74463 13.2716 4.74392 12.3081V10.5619H2.99714C2.03171 10.5626 1.24965 11.3446 1.25037 12.3081ZM5.90773 12.3081V16.9654C5.9063 17.9289 6.68835 18.7109 7.65379 18.7123C8.61923 18.7116 9.40128 17.9297 9.40057 16.9661V12.3095C9.40199 11.346 8.61994 10.5641 7.6545 10.5626C6.68835 10.5626 5.90701 11.3446 5.90773 12.3081C5.90773 12.3081 5.90773 12.3088 5.90773 12.3081Z" fill="#E01E5A"/>
</svg>
