<svg width="20" height="20" viewBox="0 0 20 20" fill="none" xmlns="http://www.w3.org/2000/svg">
<path d="M8.80969 7.85663C8.02778 9.26455 7.27867 10.628 6.51393 11.9811C6.31753 12.3285 6.22033 12.6115 6.37722 13.0531C6.81041 14.273 6.19932 15.4601 5.05085 15.7823C3.96775 16.0863 2.9125 15.3239 2.69761 14.0818C2.50718 12.9824 3.30368 11.9047 4.43535 11.7328C4.53012 11.7183 4.62696 11.7167 4.78629 11.7039L6.50767 8.61206C5.425 7.45894 4.78061 6.11109 4.92321 4.44078C5.02403 3.26011 5.4575 2.23977 6.24973 1.40351C7.76712 -0.197967 10.082 -0.457275 11.8687 0.771935C13.5847 1.95268 14.3705 4.25259 13.7006 6.22105C13.1955 6.07438 12.6869 5.92646 12.1278 5.764C12.3381 4.66954 12.1825 3.68677 11.4934 2.84483C11.0381 2.28895 10.4538 1.99759 9.78955 1.89024C8.45772 1.67474 7.15014 2.5912 6.76214 3.99139C6.32173 5.5804 6.98831 6.87852 8.80969 7.85671V7.85663Z" fill="#C73A63"/>
<path d="M11.0426 6.19164C11.5934 7.2326 12.1528 8.28926 12.7071 9.33622C15.509 8.40767 17.6215 10.0691 18.3793 11.8478C19.2948 13.9964 18.669 16.5412 16.8712 17.8669C15.0259 19.2276 12.6922 18.9951 11.0573 17.2471C11.474 16.8735 11.8927 16.4982 12.3401 16.0973C13.9549 17.2176 15.3672 17.1649 16.4158 15.8382C17.3099 14.7065 17.2905 13.019 16.3704 11.911C15.3087 10.6325 13.8864 10.5935 12.1673 11.8208C11.4541 10.4656 10.7286 9.1212 10.038 7.75619C9.80516 7.29614 9.54811 7.02917 9.02326 6.93184C8.14681 6.76907 7.58098 5.96287 7.54701 5.05966C7.51363 4.16639 8.00495 3.35893 8.77284 3.04436C9.53352 2.73264 10.4262 2.98421 10.9378 3.67697C11.356 4.24296 11.4888 4.88 11.2688 5.57805C11.2076 5.77271 11.1284 5.96106 11.0426 6.19171V6.19164Z" fill="#4B4B4B"/>
<path d="M12.3593 14.7009H8.98625C8.66294 16.1253 7.96459 17.2752 6.76135 18.0065C5.82592 18.5748 4.81775 18.7675 3.74473 18.5819C1.76908 18.2407 0.153654 16.3357 0.0114203 14.1907C-0.149533 11.7607 1.40981 9.60081 3.48827 9.11567C3.63176 9.67383 3.77679 10.2374 3.92028 10.7942C2.01331 11.8363 1.35329 13.1493 1.88699 14.7912C2.35681 16.236 3.69138 17.028 5.14047 16.7217C6.6203 16.409 7.3664 15.0917 7.27531 12.9776C8.67819 12.9776 10.0823 12.9621 11.4853 12.9853C12.0332 12.9945 12.4561 12.9336 12.8688 12.4163C13.5483 11.5651 14.799 11.6419 15.5308 12.4458C16.2787 13.2675 16.2428 14.5895 15.4514 15.3765C14.6878 16.1358 13.4815 16.0953 12.7671 15.277C12.6203 15.1084 12.5046 14.9081 12.3593 14.7009Z" fill="#4A4A4A"/>
</svg>
