<svg width="20" height="20" viewBox="0 0 20 20" fill="none" xmlns="http://www.w3.org/2000/svg">
<path d="M10.0022 1.25H9.99781C5.17328 1.25 1.25 5.17437 1.25 10C1.25 11.9141 1.86687 13.6881 2.91578 15.1286L1.82531 18.3792L5.18859 17.3041C6.57219 18.2206 8.22266 18.75 10.0022 18.75C14.8267 18.75 18.75 14.8245 18.75 10C18.75 5.17547 14.8267 1.25 10.0022 1.25Z" fill="#4CAF50"/>
<path d="M15.0936 13.6061C14.8825 14.2022 14.0447 14.6966 13.3764 14.8409C12.9192 14.9383 12.322 15.0159 10.3117 14.1825C7.74032 13.1172 6.08439 10.5042 5.95532 10.3347C5.83173 10.1652 4.91626 8.95109 4.91626 7.69547C4.91626 6.43984 5.55392 5.82844 5.81095 5.56594C6.02204 5.35047 6.37095 5.25203 6.70564 5.25203C6.81392 5.25203 6.91126 5.2575 6.99876 5.26188C7.25579 5.27281 7.38485 5.28813 7.55439 5.69391C7.76548 6.2025 8.27954 7.45812 8.34079 7.58719C8.40314 7.71625 8.46548 7.89125 8.37798 8.06078C8.29595 8.23578 8.22376 8.31343 8.0947 8.46218C7.96564 8.61093 7.84314 8.72468 7.71407 8.88437C7.59595 9.02328 7.46251 9.17203 7.61126 9.42906C7.76001 9.68062 8.27407 10.5195 9.03095 11.1933C10.0077 12.0628 10.7995 12.3406 11.0828 12.4587C11.2939 12.5462 11.5455 12.5255 11.6997 12.3614C11.8955 12.1503 12.1372 11.8003 12.3833 11.4558C12.5583 11.2086 12.7792 11.178 13.0111 11.2655C13.2474 11.3475 14.4975 11.9655 14.7545 12.0934C15.0116 12.2225 15.1811 12.2837 15.2434 12.392C15.3047 12.5003 15.3047 13.0089 15.0936 13.6061Z" fill="#FAFAFA"/>
</svg>
